<svg viewBox="0 0 26 26" fill="none" xmlns="http://www.w3.org/2000/svg">
  <path
    d="M7.52917 18.4347H15.0222V16.6292H7.52917V18.4347ZM7.52917 13.9028H18.4708V12.0972H7.52917V13.9028ZM7.52917 9.37083H18.4708V7.56527H7.52917V9.37083ZM5.05554 22.75C4.56804 22.75 4.14524 22.571 3.78714 22.2129C3.42905 21.8548 3.25 21.432 3.25 20.9445V5.05554C3.25 4.56804 3.42905 4.14524 3.78714 3.78714C4.14524 3.42905 4.56804 3.25 5.05554 3.25H20.9445C21.432 3.25 21.8548 3.42905 22.2129 3.78714C22.571 4.14524 22.75 4.56804 22.75 5.05554V20.9445C22.75 21.432 22.571 21.8548 22.2129 22.2129C21.8548 22.571 21.432 22.75 20.9445 22.75H5.05554ZM5.05554 20.9445H20.9445V5.05554H5.05554V20.9445Z" />
</svg>