<svg width="26" height="26" viewBox="0 0 26 26" fill="none" xmlns="http://www.w3.org/2000/svg">
<path d="M13 15.1667C13.5959 15.1667 14.1059 14.9545 14.5302 14.5302C14.9546 14.1059 15.1667 13.5959 15.1667 13C15.1667 12.4042 14.9546 11.8941 14.5302 11.4698C14.1059 11.0455 13.5959 10.8334 13 10.8334C12.4042 10.8334 11.8941 11.0455 11.4698 11.4698C11.0455 11.8941 10.8334 12.4042 10.8334 13C10.8334 13.5959 11.0455 14.1059 11.4698 14.5302C11.8941 14.9545 12.4042 15.1667 13 15.1667ZM8.66671 19.5H17.3334V18.8771C17.3334 18.4438 17.216 18.0465 16.9813 17.6854C16.7466 17.3243 16.4216 17.0535 16.0063 16.8729C15.5368 16.6743 15.0539 16.5209 14.5573 16.4125C14.0608 16.3042 13.5417 16.25 13 16.25C12.4584 16.25 11.9393 16.3042 11.4427 16.4125C10.9462 16.5209 10.4632 16.6743 9.99379 16.8729C9.57851 17.0535 9.25351 17.3243 9.01879 17.6854C8.78407 18.0465 8.66671 18.4438 8.66671 18.8771V19.5ZM19.8612 23.8334H6.13891C5.65141 23.8334 5.22861 23.6543 4.87052 23.2962C4.51242 22.9381 4.33337 22.5153 4.33337 22.0278V3.97223C4.33337 3.48472 4.51242 3.06193 4.87052 2.70383C5.22861 2.34574 5.65141 2.16669 6.13891 2.16669H15.1848L21.6667 8.64862V22.0278C21.6667 22.5153 21.4877 22.9381 21.1296 23.2962C20.7715 23.6543 20.3487 23.8334 19.8612 23.8334ZM19.8612 22.0278V9.44309L14.3903 3.97223H6.13891V22.0278H19.8612Z" fill="black"/>
</svg>
