<svg width="26" height="26" viewBox="0 0 26 26" fill="none" xmlns="http://www.w3.org/2000/svg">
<path d="M5.05554 22.75C4.56804 22.75 4.14524 22.571 3.78714 22.2129C3.42905 21.8548 3.25 21.432 3.25 20.9445V5.05554C3.25 4.56804 3.42905 4.14524 3.78714 3.78714C4.14524 3.42905 4.56804 3.25 5.05554 3.25H20.9445C21.432 3.25 21.8548 3.42905 22.2129 3.78714C22.571 4.14524 22.75 4.56804 22.75 5.05554V20.9445C22.75 21.432 22.571 21.8548 22.2129 22.2129C21.8548 22.571 21.432 22.75 20.9445 22.75H5.05554ZM5.05554 5.05554V20.9445H20.9445V5.05554H18.3444V12.6208L15.6722 11.0139L13 12.6208V5.05554H5.05554Z" fill="black"/>
</svg>
