<svg viewBox="0 0 26 26" xmlns="http://www.w3.org/2000/svg">
  <path
    d="M13 24.375C11.6278 23.1352 10.1051 22.1842 8.43194 21.5222C6.7588 20.8602 5.03149 20.5291 3.25 20.5291V8.81108C4.98935 8.81108 6.6956 9.17972 8.36875 9.917C10.0419 10.6543 11.5857 11.694 13 13.0361C14.4143 11.694 15.9581 10.6543 17.6313 9.917C19.3044 9.17972 21.0107 8.81108 22.75 8.81108V20.5291C20.9625 20.5291 19.2337 20.8602 17.5635 21.5222C15.8934 22.1842 14.3722 23.1352 13 24.375ZM13 22.0458C14.2338 21.1491 15.5187 20.4329 16.8549 19.8972C18.191 19.3616 19.5542 19.0185 20.9445 18.868V10.7791C19.6866 10.9898 18.3911 11.4758 17.058 12.2371C15.7249 12.9985 14.3722 14.0412 13 15.3652C11.5435 13.993 10.1698 12.9353 8.87881 12.192C7.58784 11.4487 6.31341 10.9778 5.05554 10.7791V18.868C6.44582 19.0185 7.80901 19.3616 9.14512 19.8972C10.4812 20.4329 11.7662 21.1491 13 22.0458ZM13.0542 9.53331C11.8745 9.53331 10.8755 9.12406 10.0569 8.30554C9.23842 7.48701 8.82917 6.48794 8.82917 5.30831C8.82917 4.12869 9.23842 3.12961 10.0569 2.31108C10.8755 1.49257 11.8745 1.08331 13.0542 1.08331C14.2338 1.08331 15.2329 1.49257 16.0514 2.31108C16.8699 3.12961 17.2792 4.12869 17.2792 5.30831C17.2792 6.48794 16.8699 7.48701 16.0514 8.30554C15.2329 9.12406 14.2338 9.53331 13.0542 9.53331ZM13.057 7.72775C13.7232 7.72775 14.2925 7.49057 14.7649 7.01621C15.2374 6.54184 15.4736 5.97158 15.4736 5.30544C15.4736 4.6393 15.2364 4.07 14.7621 3.59754C14.2877 3.12508 13.7174 2.88885 13.0513 2.88885C12.3852 2.88885 11.8159 3.12604 11.3434 3.60041C10.8709 4.07479 10.6347 4.64504 10.6347 5.31118C10.6347 5.97733 10.8719 6.54663 11.3463 7.01909C11.8206 7.49153 12.3909 7.72775 13.057 7.72775Z" />
</svg>